<svg width="50" height="36" viewBox="0 0 50 36" fill="none" xmlns="http://www.w3.org/2000/svg">
<path d="M31.96 2H5.22652C2.9737 2 1.41568 4.23542 2.20991 6.32817L10.5429 29.102C11.5286 31.3878 13.8286 34 17.7714 34H31.96C40.8186 34 48 26.8366 48 18C48 9.16344 40.8186 2 31.96 2Z" fill="black" stroke="#FF0000" stroke-width="4"/>
<path d="M22.5738 9V11.38H30.5082C33.3934 11.38 37 14.78 37 18.52C37 23.28 33.0328 25.8867 30.5082 26H22.5738V21.92H29.0656C30.5082 21.92 32.3115 20.696 32.3115 18.52C32.3115 16.344 30.5082 15.12 29.0656 15.12H22.5738V18.18L15 13.42L22.5738 9Z" fill="#FF0000"/>
</svg>
